<svg width="22" height="22" viewBox="0 0 22 22" fill="none" xmlns="http://www.w3.org/2000/svg">
<g id="popo/linear/call-off">
<path id="Vector 410" d="M14.8067 13.4674L16.8848 14.7142C17.6846 15.1941 17.9439 16.2315 17.464 17.0313L17.4351 17.0796C17.1235 17.5989 16.6702 18.0187 16.1285 18.2895L15.8185 18.4445C15.3695 18.669 14.8572 18.7333 14.3666 18.6267L14.1234 18.5738C8.39485 17.3285 4.05591 12.6346 3.26382 6.82601C3.22693 6.55546 3.242 6.28035 3.30822 6.01545L3.36037 5.80686C3.55723 5.01943 4.04051 4.33365 4.71586 3.88342L4.85808 3.7886C5.71325 3.21849 6.86995 3.46265 7.42174 4.32976L8.83509 6.55072C9.29641 7.27566 9.19234 8.22375 8.58474 8.83136L7.98259 9.4335C7.86706 9.54903 7.83351 9.72326 7.89787 9.87343L8.04143 10.2084C8.76775 11.9032 10.0713 13.2856 11.7204 14.1102C11.8405 14.1702 11.9841 14.1572 12.0915 14.0767L12.7635 13.5728C13.3598 13.1255 14.1675 13.0838 14.8067 13.4674Z" stroke="#5FC88F" stroke-width="1.5"/>
<path id="Vector 315" d="M16.1529 7.33322H12.2638" stroke="#5FC88F" stroke-width="1.5" stroke-linecap="round"/>
<path id="Vector 316" d="M14.2083 5.38867V9.27776" stroke="#5FC88F" stroke-width="1.5" stroke-linecap="round"/>
</g>
</svg>
