<svg width="20" height="14" viewBox="0 0 20 14" fill="none" xmlns="http://www.w3.org/2000/svg">
<path id="Vector" d="M11.7143 7H18.5714M11.7143 2.71429H18.5714M13.4286 11.2857H18.5714M8.28573 3.57143C8.28573 4.99159 7.13446 6.14286 5.7143 6.14286C4.29414 6.14286 3.14287 4.99159 3.14287 3.57143C3.14287 2.15127 4.29414 1 5.7143 1C7.13446 1 8.28573 2.15127 8.28573 3.57143ZM10 10.4286C10 11.8487 8.08124 13 5.7143 13C3.34737 13 1.42859 11.8487 1.42859 10.4286C1.42859 9.00841 3.34737 7.85714 5.7143 7.85714C8.08124 7.85714 10 9.00841 10 10.4286Z" stroke="#F7931A" stroke-width="1.5" stroke-linecap="round" stroke-linejoin="round"/>
</svg>
